<svg width="20" height="21" viewBox="0 0 20 21" fill="none" xmlns="http://www.w3.org/2000/svg">
<path d="M9.99998 0.800293C8.04194 0.800293 6.12788 1.38092 4.49983 2.46874C2.87179 3.55657 1.60288 5.10274 0.853573 6.91173C0.104265 8.72072 -0.0917879 10.7113 0.290206 12.6317C0.672199 14.5521 1.61508 16.3161 2.99962 17.7006C4.38416 19.0852 6.14817 20.0281 8.06859 20.4101C9.989 20.7921 11.9796 20.596 13.7885 19.8467C15.5975 19.0974 17.1437 17.8285 18.2315 16.2004C19.3194 14.5724 19.9 12.6583 19.9 10.7003C19.9 8.07465 18.8569 5.55655 17.0003 3.69994C15.1437 1.84333 12.6256 0.800293 9.99998 0.800293ZM14.4833 11.5771L8.82612 15.4664C8.66105 15.5634 8.47307 15.6146 8.28162 15.6146C8.09017 15.6146 7.90219 15.5634 7.73712 15.4664C7.57436 15.3825 7.43646 15.2574 7.33718 15.1035C7.23792 14.9497 7.18075 14.7725 7.17141 14.5896V6.81101C7.1707 6.61843 7.22313 6.4294 7.32295 6.26471C7.42276 6.10002 7.56608 5.96606 7.73712 5.87758C7.90219 5.78059 8.09017 5.72946 8.28162 5.72946C8.47307 5.72946 8.66105 5.78059 8.82612 5.87758L14.4833 9.76686C14.6262 9.86415 14.7432 9.9949 14.824 10.1477C14.9049 10.3006 14.9471 10.4708 14.9471 10.6437C14.9471 10.8166 14.9049 10.9869 14.824 11.1397C14.7432 11.2925 14.6262 11.4233 14.4833 11.5206V11.5771Z" fill="white"/>
</svg>
